Simulation
nRows=15
nColumns=15
endheader
time  TH_x TH_y TH_z SC_y  SC_z  SC_x  AC_y  AC_z  AC_x  GH_y  GH_z  GH_yy  EL_x  PS_y
0.0  0.000000  0.000000  0.000000  -29.16059030983309  -2.0637166108880143  2.4007574703296743  56.236885789518425  3.606180778358963  -9.519012673087762  -160.13978469239245  4.932275592146163  -154.26257216595636  25.6373715164773  0.000000
0.034  0.000000  0.000000  0.000000  -29.080425292796836  -2.032211861735981  2.585035725532497  56.30962503097676  3.852585366076743  -9.589289005691496  -160.485900303754  4.1210882275246234  -154.48358519426836  25.600210534855716  0.000000
0.068  0.000000  0.000000  0.000000  -28.909799169638944  -2.0409994964221263  2.7619633937813566  56.488474477609515  3.886470905452344  -9.64315140824675  -162.4259542624783  3.0535547833225984  -153.37409152409293  25.666709709370743  0.000000
0.10200000000000001  0.000000  0.000000  0.000000  -28.840389892873787  -2.1047021962489723  2.9750176204208336  56.69648200385325  3.7879940780215082  -9.683445405345227  -168.56852264814177  1.8271452767234453  -148.288342815292  25.704844820067795  0.000000
0.136  0.000000  0.000000  0.000000  -28.780324284660647  -2.142636898133196  3.2332785390615504  56.946658744398704  3.612116066374586  -9.698821277970843  153.57070613709783  0.6609843818564117  -111.61103471575791  25.73822555414592  0.000000
0.17  0.000000  0.000000  0.000000  -28.76421988202888  -2.132098594510888  3.537859819776149  57.22608676428892  3.399156816064762  -9.667733909982996  56.14324366206048  1.219856975509029  -15.436712124748308  25.76435345755557  0.000000
0.20400000000000001  0.000000  0.000000  0.000000  -28.772561346037897  -2.06406996432718  3.8768989675654435  57.52856816431607  3.1780752685236457  -9.589761522862085  41.8539844400797  2.6903078477090205  -2.4649795252785776  25.773591890121295  0.000000
0.23800000000000002  0.000000  0.000000  0.000000  -28.816181460000703  -1.938429241224629  4.239274080775714  57.8707123867159  2.969569822147831  -9.45473834766427  38.0680010467081  4.282730266669665  -0.02990140150827388  25.771215398578445  0.000000
0.272  0.000000  0.000000  0.000000  -28.87189503150336  -1.7607035688038535  4.612642713970756  58.240039886137126  2.791694448785656  -9.263501623913372  36.736687399488886  5.937357829501166  -0.08211523726410902  25.758696961583723  0.000000
0.30600000000000005  0.000000  0.000000  0.000000  -28.937912852507385  -1.5463780967753695  4.982656711987444  58.63560036161508  2.665895375781165  -9.023640687377215  36.36906680503244  7.638621966236777  -1.1156411217520672  25.736541544288357  0.000000
0.34  0.000000  0.000000  0.000000  -28.999255383307126  -1.304479896648931  5.343412647534396  59.03863887835557  2.609619980230026  -8.749903288015608  36.496074303772296  9.373530079700895  -2.656001878793571  25.707858068421118  0.000000
0.374  0.000000  0.000000  0.000000  -29.049029713911246  -1.0363871187832217  5.698932226254057  59.449896609669025  2.6258322169702004  -8.45996736266761  36.89039199138561  11.14146813765785  -4.459029571775139  25.672393486946607  0.000000
0.40800000000000003  0.000000  0.000000  0.000000  -29.087433214000765  -0.745443339937496  6.056554682811925  59.862555782595194  2.709798301525419  -8.16229771591974  37.42585029523175  12.936975729097396  -6.393559642214208  25.632357646665138  0.000000
0.44200000000000006  0.000000  0.000000  0.000000  -29.122298152380477  -0.43451107843164155  6.411985273297313  60.276984344938775  2.8571577079117945  -7.856004794139972  38.05125203697411  14.758339697865901  -8.411543921630757  25.58342535000887  0.000000
0.47600000000000003  0.000000  0.000000  0.000000  -29.159301569645066  -0.10505730319848074  6.761654111752508  60.688937113148285  3.062048047281724  -7.538816476937341  38.738664940023575  16.600442040181306  -10.48374972592478  25.528078426292737  0.000000
